<svg width="677" height="288" viewBox="0 0 677 288" fill="none" xmlns="http://www.w3.org/2000/svg">
<path d="M34.2248 247.511C32.836 235.828 33.1798 225.031 34.8844 215.228C36.5925 205.409 39.672 196.579 43.7583 188.814C47.8411 181.032 52.9308 174.332 58.6627 168.773C64.3981 163.214 70.7793 158.786 77.4417 155.591C81.387 153.695 85.4126 152.237 89.4888 151.227C93.6037 150.206 97.7656 149.721 101.932 149.776C106.084 149.852 110.219 150.515 114.25 151.896C118.277 153.281 122.2 155.368 125.939 158.27C128.231 160.052 130.925 162.763 133.522 166.094C136.112 169.425 138.608 173.387 140.479 177.663C142.35 181.94 143.611 186.537 143.739 191.134C143.868 195.731 142.871 200.339 140.226 204.654C138.318 207.777 135.769 209.751 133.025 210.229C130.348 210.767 127.477 210.115 124.637 208.773C121.797 207.436 118.989 205.387 116.444 203.116C114.127 201.041 111.921 198.676 109.847 196.046C106.941 192.315 104.263 188.167 101.848 183.657C99.4022 179.09 97.2279 174.183 95.3527 168.996C93.4779 163.796 91.9156 158.329 90.7317 152.705C89.5429 147.122 88.75 141.351 88.3674 135.496C87.9473 129.138 88.107 122.715 88.843 116.423C89.5443 110.472 90.822 104.718 92.6273 99.36C103.897 65.9846 130.675 59.366 152.436 57.8282C163.205 57.0674 173.985 56.7523 184.758 56.5241C195.847 56.285 206.929 56.8447 217.98 58.2086" stroke="#7C3AED" stroke-width="1.5" stroke-miterlimit="10" stroke-linecap="round"/>
<path d="M11.1655 223.466C24.0806 236.1 26.2644 259.347 36.8638 274.98C40.4953 258.537 48.8171 225.694 58.1285 214.598" stroke="#7C3AED" stroke-width="1.5" stroke-miterlimit="10" stroke-linecap="round" stroke-linejoin="round"/>
<path d="M330.376 81.955L327.414 86.7532L328.501 89.8071L327.314 90.6765L326.887 93.437L326.349 94.9802C326.251 96.1974 326.06 97.1538 325.776 97.8222L326.449 99.0502L325.831 101.555L325.998 103.892L325.724 104.712L326.39 106.044L325.373 107.381L325.557 109.5L324.939 111.13C325.154 112.559 325.224 113.738 325.151 114.678L325.116 115.108L325.769 117.531C325.474 120.101 324.658 121.259 323.325 121.009C322.727 120.889 322.019 119.841 321.193 117.857L321.113 115.325C320.568 113.977 320.294 112.977 320.301 112.32L319.752 109.478L319.863 108.076L319.586 107.147L319.62 106.712L318.895 106.136L319.058 105.843C319.145 104.761 319.301 103.952 319.53 103.414L319.606 102.441C319.652 101.895 319.741 101.361 319.87 100.849L319.749 99.7295L319.093 99.1698C319.936 98.5286 320.388 97.8439 320.443 97.1266C320.443 96.8608 320.416 96.5966 320.363 96.3441C320.346 96.0896 320.343 95.8334 320.353 95.5779L320.356 91.9644L320.804 90.7363C319.277 91.171 317.961 91.2851 316.86 91.0732C316.767 91.0368 316.677 90.982 316.593 90.9102L316.246 90.845C316.055 90.8441 315.865 90.8806 315.68 90.9536L314.527 92.2687L311.781 92.5078L310.385 93.3337L308.802 93.0294L307.563 93.6652L306.122 93.2848L304.941 94.0401L304.271 93.6924C303.482 93.9846 302.673 94.1233 301.862 94.1053C301.116 94.1053 300.612 94.301 300.345 94.6868C299.946 94.4412 299.612 93.991 299.397 93.4098C299.165 93.4552 298.93 93.4479 298.699 93.3881L297.088 94.2847L296.151 92.899C295.505 92.774 294.602 92.3828 293.443 91.7198L292.853 92.1545L291.676 91.0515L289.745 90.6819L288.822 89.0789L287.315 87.8019L284.586 82.4604L284.416 79.2543L283.614 77.021L284.152 75.4832C284.178 75.2648 284.218 75.0516 284.274 74.8474L284.322 74.1953L283.694 72.4347L284.861 70.0329L285.215 69.9894L287.208 65.9955L287.284 65.0228L287.714 64.8869L287.944 64.6044L288.332 65.0065C288.843 65.0336 289.183 64.2946 289.346 62.7948L289.804 63.2078C290.079 62.6753 290.544 62.0721 291.204 61.3983L291.03 60.9256L291.297 60.2137L292.2 59.3986L292.346 59.3171L293.353 57.2087L293.794 57.8445L294.412 57.9641L295.408 55.9644L297.175 55.7579L297.869 54.9047C297.79 54.7417 297.755 54.5896 297.765 54.4483L297.974 53.6115L298.748 53.5408L299.203 53.0789L299.435 53.6767L299.97 53.117L300.251 52.1878L301.716 52.2475L303.015 50.8564L304.351 50.7858L304.893 50.1229L305.553 50.5793L306.052 49.5795L306.545 50.438L306.664 49.8077C306.723 49.085 307.056 48.6774 307.67 48.5742C307.974 48.1484 308.333 47.8299 308.722 47.6405C309.112 47.4511 309.523 47.3952 309.927 47.4765L311.166 47.7156L311.392 47.5363L312.691 46.1452L313.361 46.493L314.61 45.7485L315.09 45.8409C315.714 45.5964 316.214 45.5094 316.582 45.5801L317.905 44.7378L318.572 45.1942L319.051 45.2866L319.474 44.3846L321.11 44.9171L321.599 44.9008L322.04 43.7814L324.064 45.5964L325.307 45.8355L326.626 47.7265C327.414 48.3894 328.209 49.2371 329.015 50.2696C328.699 53.7093 327.095 55.4481 324.2 55.4753L322.519 53.731L321.939 53.9484L320.821 53.0735L320.082 53.5897L318.815 52.7964L316.471 54.1005L315.576 53.0518L314.43 53.3778C314.079 53.3951 313.742 53.6003 313.475 53.9592C312.562 54.883 311.67 55.2579 310.798 55.0895L310.312 54.9971C308.243 56.4208 306.57 57.2685 305.289 57.5348L304.928 58.5618L304.101 58.3988L303.449 59.5942H302.331C301.515 60.4637 300.647 61.1321 299.723 61.6102L298.415 62.2352L296.352 64.4631L295.224 65.4575L293.873 67.4952L291.905 69.4134L291.745 71.4675L291.134 72.1195L289.718 75.8907L289.607 77.2981C290.294 78.6675 290.648 80.0531 290.683 81.4442L290.863 81.8083L292.356 83.2972L293.957 84.2644L296.172 84.5796L298.862 85.9707L299.352 85.9598L299.893 86.1718L303.719 86.4652L303.935 86.4C304.872 86.2139 305.816 86.1033 306.761 86.0685L307.983 85.6447L310.899 85.8783L315.576 85.1339C316.419 84.4927 317.374 84.2047 318.443 84.2644L319.402 84.5524C320.131 85.3512 320.492 86.0739 320.488 86.7315L321.363 84.4927L320.599 85.3349L320.752 83.3896L321.457 83.3081L322.418 81.7431C322.25 81.3476 322.119 80.9155 322.03 80.4607C322.057 80.102 322.11 79.7434 322.182 79.3956C322.262 79.1622 322.328 78.9186 322.38 78.6675C322.443 77.8741 322.29 76.5319 321.929 74.6355C322.762 74.0703 323.62 73.8693 324.491 74.0377C325.321 74.1953 326.057 74.592 326.706 75.2332L327.251 76.32C327.946 76.9612 328.473 77.6839 328.831 78.4827L330.376 81.955ZM352.158 31.7235C352.092 32.5875 351.661 33.3047 350.87 33.8862L350.852 34.1035C349.849 35.587 349.019 36.3749 348.36 36.4673L347.172 38.2062L346.374 39.4777L344.739 39.8201L343.93 41.2003L342.76 41.8524L340.774 43.9879L339.798 42.1567L340.215 39.4995L341.125 37.7062C341.25 36.7064 341.687 35.913 342.43 35.3262L342.465 34.8915L342.916 34.5437L343.107 32.9407L344.246 32.7233L344.322 31.7452L345.166 31.6908C345.461 30.2889 345.933 29.3216 346.582 28.7891L346.804 28.6152L347.27 28.0447L348.023 25.5613C350.967 27.3002 352.345 29.3488 352.158 31.7235ZM354.703 90.2472C354.574 91.8991 354.307 92.9099 353.908 93.2685L353.529 93.6326L353.064 95.0726L351.922 95.3986C351.509 96.4908 350.957 97.3005 350.262 97.8222L349.617 98.0287L348.603 99.3654L347.749 99.5284C347.325 100.762 346.603 101.316 345.589 101.191C345.482 101.392 345.242 101.784 344.867 102.37C344.175 102.935 343.408 103.237 342.628 103.251L342.277 103.294L341.718 104.174L340.34 103.903L339.135 104.99L336.566 101.213L335.584 96.7571L335.931 91.4536L335.757 90.1059L337.326 80.7704L337.639 80.39C337.584 79.3366 337.596 78.2773 337.674 77.2275C337.726 76.5754 337.969 75.2712 338.403 73.315L338.941 70.9023C338.857 70.3595 338.707 69.8467 338.5 69.3917L339.073 67.4246L339.406 64.9684L339.569 64.6696C339.433 63.9469 339.375 63.1942 339.396 62.4416C339.546 62.0966 339.647 61.7059 339.694 61.2951C339.609 60.6813 339.588 60.0501 339.632 59.4258C339.767 57.6978 340.451 57.0294 341.68 57.4152L342.496 57.6761C343.083 57.35 343.444 57.2033 343.583 57.2305C344.499 57.4044 345.058 58.3173 345.256 59.9583L345.221 60.393C345.339 61.2896 345.367 62.1319 345.305 62.9253C345.285 63.4063 345.2 63.8751 345.055 64.3001L344.152 69.6036L344.513 71.2066C344.419 72.4785 344.029 73.6514 343.416 74.4996L343.59 75.8472L342.374 79.7705C342.211 81.1367 341.988 82.4839 341.708 83.8026L341.496 86.5032L340.965 87.9324L340.947 89.0191L340.614 91.4807L340.6 93.4478L341.534 94.9367L342.378 94.8824L342.541 94.5835L343.083 94.8009L344.013 94.5401L344.864 93.4967L345.19 92.9044L345.68 92.8881L345.86 92.3773L346.103 91.9861L346.482 92.4969L347.256 91.5514L347.662 91.7361L347.856 91.008L347.995 91.0352L348.269 90.2146L348.922 89.8995L350.311 89.1822C351.457 88.2312 352.536 87.8563 353.547 88.0519L353.821 88.1062C354.286 88.704 354.581 89.4213 354.703 90.2472ZM393.517 62.8818L392.684 64.5826L392.729 66.6747L391.618 67.4463L391.167 69.6579L390.487 70.2937L390.094 72.6303L389.886 72.5868C389.775 73.0797 389.595 73.5281 389.361 73.9C389.126 74.272 388.842 74.5583 388.528 74.7387L387.636 78.0697L386.9 79.4608C386.911 79.8955 386.897 80.3737 386.858 80.8736L385.636 82.1778L383.602 87.5846L382.033 90.6819L381.946 91.7579C381.866 92.7631 381.432 93.5511 380.641 94.1325L380.352 96.0507L379.835 96.3876L378.873 97.9526L378.571 99.0991L378.047 99.5502C378.03 99.7675 378.04 100.24 378.075 100.974L377.242 101.8L375.908 102.751L375.408 103.751L373.853 105.75C372.124 109.358 370.479 111.016 368.916 110.712C367.677 110.478 366.628 109.25 365.778 107.044L365.924 107.837L363.945 101.876L363.906 100.555L363.528 100.045L363.663 97.4364L362.997 96.1105L363.209 93.4098L361.907 86.813L362.129 85.7588L361.698 84.1449L361.653 82.9277L361.365 82.1126L361.035 80.0748L359.914 78.3251L359.643 74.6572L358.779 73.1792L358.338 71.6739C357.234 70.8752 356.775 69.2884 356.963 66.9192C357.119 64.9087 358.234 63.4741 360.306 62.6318C362.625 65.7835 363.91 68.7287 364.16 71.4783L364.17 73.9942C364.368 73.8856 364.698 73.8041 365.17 73.7497L365.094 74.7224L366.094 76.2276L365.545 77.8741L365.583 79.1946L366 81.9007L366.302 82.5093L366.295 83.4928L366.812 84.0308L366.67 85.862L367.097 90.2146L367.107 91.8611L367.941 95.5236L368.507 99.9034L369.111 101.115L369.246 101.142C369.43 101.175 369.614 100.925 369.798 100.371L370.374 100.153L370.236 99.2513C370.406 98.8438 370.586 98.659 370.77 98.697C370.97 98.7455 371.155 98.8965 371.294 99.1263C371.728 97.7515 372.017 97.0723 372.152 97.0994C372.201 97.1103 372.214 97.2244 372.197 97.4364C372.447 96.6104 372.94 95.9746 373.676 95.5345L374.731 93.6543L375.454 91.6057L376.21 90.8721L376.735 89.5517L377.033 89.28L377.006 87.8508L377.808 87.4596L377.988 86.9434C378.009 86.6554 378.155 86.2859 378.425 85.824L379.061 83.9764L379.352 84.6883L379.644 84.5253L379.672 84.1992C379.708 83.7386 379.812 83.2975 379.976 82.9108C380.14 82.5241 380.359 82.2024 380.616 81.9713L380.634 81.7539L381.224 80.4498L381.755 78.1404L382.255 78.0208L383.414 74.8474L384.137 73.6736C384.317 72.7018 384.731 71.8776 385.293 71.3751L386.15 68.4733L386.709 67.5985L386.886 65.3325L387.233 65.3977C387.831 64.9304 388.355 64.1533 388.813 63.072C389.278 61.9254 389.608 61.257 389.81 61.0777L390.181 60.8169L392.254 59.3552L393.517 62.8872V62.8818ZM413.727 108.592C413.657 109.462 413.161 110.456 412.23 111.592C411.955 112.609 411.525 113.505 410.977 114.2L410.557 114.227L409.637 116.129L408.37 116.216L406.96 117.259L406.117 119.069L405.377 118.705C404.96 118.933 404.526 119.072 404.086 119.118L403.596 120.004C403.401 119.882 403.195 119.807 402.985 119.781C402.388 119.667 401.763 120.199 401.11 121.389L400.246 119.911C399.966 119.943 399.686 119.925 399.409 119.857C398.888 119.78 398.383 119.534 397.927 119.134L396.757 118.911L396.246 118.265C394.535 117.499 393.514 116.243 393.184 114.504L393.208 114.178L392.434 113.374L392.163 111.461L391.403 110.434L391.532 108.821L391.077 103.914L391.518 100.056L391.931 98.3819L392.108 96.1213L392.587 94.4585L392.58 93.6924L393.163 92.486L393.007 92.6762C393.075 91.9622 393.248 91.2829 393.514 90.6928L393.556 90.1548L393.552 87.5248C393.646 86.3022 394.076 85.2915 394.84 84.4872C394.908 84.2931 394.949 84.078 394.958 83.8569C394.961 83.256 394.914 82.657 394.819 82.0745C394.76 81.4195 394.742 80.7572 394.764 80.0966C394.833 79.2271 395.042 78.3577 395.389 77.4774C395.525 77.9234 395.734 78.3056 395.994 78.586C396.254 78.8663 396.556 79.0349 396.871 79.075L397.079 79.1185C397.194 78.8468 397.427 78.5642 397.777 78.2653C398.284 76.5373 398.909 75.1245 399.649 74.0269L399.958 73.6465C399.978 73.3585 400.183 72.5597 400.565 71.2447L401.117 71.3533L401.298 70.8371L401.864 70.7284C402.141 70.1959 402.304 69.9025 402.353 69.8373C402.457 69.7123 402.999 69.3428 403.981 68.7287C404.235 68.215 404.554 67.7895 404.919 67.4789C405.113 67.3702 405.353 67.2779 405.641 67.1855L405.967 66.5878C407.259 66.1802 408.064 66.0063 408.387 66.0715C408.75 66.1392 409.095 66.3567 409.387 66.7019L409.741 66.6584L410.189 67.1801C410.689 67.9354 411.199 68.582 411.717 69.12L412.775 70.7502L412.744 71.1795C413.699 72.6738 414.084 74.6083 413.897 76.9829L413.605 78.0208L413.532 81.6235L412.862 82.1506L411.953 84.8241L410.467 86.8347L410.262 88.5464C408.661 89.9212 407.2 90.9917 405.88 91.7579C405.391 92.6816 404.707 93.062 403.832 92.899L403.627 92.8555L402.218 93.8989L401.114 93.6869L399.374 94.4477L398.211 93.2413L398.072 93.2142C397.885 94.0446 397.725 94.8898 397.593 95.7464L396.993 96.2898L396.823 97.5722L396.264 99.3274C396.267 101.077 396.246 102.207 396.208 102.707L395.906 102.979C395.862 103.666 395.786 104.347 395.677 105.017C395.66 105.129 395.628 105.235 395.583 105.326L395.559 105.653C395.514 106.223 395.659 106.728 396 107.158C396.069 108.049 396.257 108.63 396.562 108.907L396.993 109.646L398.458 110.587L398.433 110.913L398.968 111.233L401.294 111.902L402.697 111.842L403.447 111.217L403.877 111.081L404.693 109.598L405.044 109.554L406.835 109.022C407.097 108.512 407.442 108.125 407.835 107.902L408.082 107.402C409.022 107.294 409.613 106.636 409.845 105.441C410.211 105.001 410.63 104.682 411.077 104.504C411.525 104.327 411.99 104.294 412.446 104.408L412.72 104.462C413.47 106.212 413.803 107.587 413.727 108.592ZM409.338 76.2167C409.34 75.7678 409.305 75.3205 409.234 74.8854L408.897 74.7061L408.752 74.793L408.477 74.7387C408.386 74.7915 408.289 74.8101 408.193 74.793C408.121 74.7657 408.054 74.7158 407.995 74.6463C407.925 74.6324 407.856 74.6179 407.786 74.6028L407.04 75.2278L406.412 75.2169L406.047 75.3636L404.69 77.5155L403.863 78.2327L402.527 81.0421L401.853 81.5692C401.621 82.7647 401.218 83.7428 400.645 84.509L400.308 85.2154C400.864 84.8043 401.484 84.6551 402.093 84.7861L402.6 84.5579L402.881 83.6287L403.839 83.9167L404.492 82.7321L404.905 82.8081L405.63 83.3896L406.099 81.8355L406.582 81.9278L406.675 80.7432L407.599 80.5911L407.828 80.3085L408.043 79.363L409.099 77.4829C409.23 77.0891 409.312 76.6591 409.338 76.2167ZM452.371 50.9814C452.305 51.8454 451.875 52.5627 451.083 53.1441L451.066 53.3615C450.066 54.845 449.233 55.6329 448.573 55.7253L447.386 57.4641L446.587 58.7411L444.952 59.0835L444.143 60.4582L442.973 61.1103L440.987 63.2459L440.012 61.4146L440.428 58.7574L441.341 56.9642C441.466 55.9644 441.9 55.171 442.647 54.5841L442.678 54.1548L443.126 53.8016L443.324 52.1986L444.459 51.9813L444.535 51.0032L445.379 50.9488C445.678 49.5469 446.15 48.5796 446.796 48.0471L447.021 47.8732L447.483 47.3026L448.24 44.8193C451.18 46.5582 452.559 48.6068 452.371 50.9814ZM454.916 109.505C454.788 111.157 454.524 112.168 454.121 112.526L453.743 112.891L453.281 114.336L452.135 114.662C451.722 115.749 451.17 116.558 450.476 117.08L449.83 117.287L448.816 118.623L447.962 118.786C447.539 120.02 446.82 120.58 445.803 120.455C445.57 120.858 445.329 121.249 445.081 121.628C444.39 122.195 443.624 122.498 442.845 122.514L442.491 122.552L441.932 123.432L440.553 123.166L439.349 124.253L436.779 120.471L435.797 116.015L436.144 110.712L435.97 109.364L437.543 100.034L437.852 99.6534C437.797 98.5981 437.809 97.5367 437.89 96.4854C437.939 95.8333 438.182 94.5346 438.616 92.573L439.154 90.1603C439.071 89.6168 438.921 89.1038 438.713 88.6496L439.29 86.6825L439.619 84.2264L439.786 83.9275C439.648 83.2075 439.588 82.4562 439.609 81.705C439.762 81.3629 439.864 80.971 439.908 80.5585C439.822 79.9429 439.801 79.3099 439.845 78.6838C439.98 76.9612 440.664 76.2874 441.893 76.6732L442.713 76.9395C443.296 76.6134 443.657 76.4613 443.796 76.4884C444.716 76.6623 445.271 77.5752 445.469 79.2163L445.438 79.651C445.553 80.5476 445.58 81.3899 445.518 82.1832C445.499 82.6636 445.415 83.1322 445.271 83.558L444.365 88.8616L444.73 90.4646C444.634 91.7368 444.242 92.9092 443.629 93.7576L443.806 95.1052L442.588 99.0285C442.425 100.397 442.202 101.746 441.921 103.066L441.709 105.761L441.178 107.19L441.161 108.283L440.831 110.739L440.814 112.706L441.748 114.2L442.591 114.146L442.754 113.847L443.296 114.059L444.226 113.798L445.077 112.76L445.403 112.162L445.896 112.152L446.077 111.635L446.316 111.244L446.695 111.755L447.469 110.809L447.875 110.994L448.073 110.266L448.209 110.293L448.483 109.473L449.139 109.157L450.524 108.44C451.67 107.495 452.75 107.114 453.76 107.31L454.038 107.364C454.477 107.902 454.786 108.657 454.916 109.505ZM481.816 91.3503C481.763 91.997 481.302 92.5295 480.43 92.9479C480.219 93.2739 479.847 93.5293 479.319 93.7195C478.819 93.9275 478.33 94.2002 477.858 94.5346L476.469 93.5022C475.667 94.2195 474.691 94.4694 473.542 94.2466L472.74 93.7684L472.053 94.5075L470.192 94.1542L468.928 95.1161C468.487 94.7533 468.009 94.5142 467.515 94.4096C467.366 94.5183 467.033 94.6053 466.515 94.6487C466.251 94.584 466.001 94.4241 465.783 94.1814L465.255 98.2406L465.085 101.273L464.582 105.011L464.401 109.136L464.453 111.119L464.335 112.624L465.047 116.048C464.973 116.132 464.912 116.24 464.866 116.363C464.82 116.486 464.79 116.623 464.779 116.765C464.741 117.265 465.217 117.759 466.203 118.243L466.241 119.563L466.696 119.976L467.456 120.998L467.956 121.759C468.428 121.699 468.755 121.688 468.939 121.726C469.352 121.802 469.758 121.992 470.154 122.286C470.348 122.177 470.779 121.748 471.445 120.998C471.904 120.509 472.317 120.292 472.685 120.362L472.89 120.4C472.948 120.472 473.016 120.523 473.087 120.552C473.608 119.265 474.414 118.504 475.504 118.276C476.398 118.403 477.224 119.074 477.806 120.145L477.747 120.9C477.556 123.345 476.882 124.785 475.729 125.22C475.198 126.649 474.251 127.448 472.883 127.627L471.963 128.66L471.067 128.486L469.432 128.828C468.896 128.894 468.358 128.863 467.828 128.736C467.424 128.646 467.037 128.424 466.692 128.084L465.797 127.91L463.543 125.394L462.95 124.954L461.738 121.656L461.023 120.091L459.929 114.407L459.773 109.233L460.013 107.962L459.554 106.674L460.02 105.229L459.86 102.783L460.402 102.126L460.652 100.751L460.544 99.4143L460.835 97.5016L460.693 95.7192L461.082 95.2465L461.217 93.5239L460.759 93.1055L459.416 93.2848L458.287 91.6438L458.079 91.6057C456.701 91.3395 456.103 90.057 456.284 87.7585L456.308 87.4324L455.642 85.2262L457.103 83.5363L458.794 84.297L459.704 84.2536L460.971 85.0469L462.419 85.3186L462.589 83.1668L461.929 79.9716L462.884 79.3902L462.669 77.7056L462.998 74.3746L462.558 72.8694C462.318 72.1798 462.21 71.3973 462.245 70.6143C462.28 69.9229 462.453 69.2665 462.741 68.7396L463.068 67.2724L463.686 66.5117C464.953 66.3921 465.797 66.3704 466.21 66.4519C467.678 66.7345 468.401 67.9299 468.376 70.0383L468.126 70.5437C468.336 71.1251 468.43 71.7909 468.397 72.4564C468.368 72.6359 468.331 72.812 468.286 72.9835L468.095 73.603L467.967 74.342L468.133 75.7983L468.022 76.3254L468.043 77.8632L467.321 79.037L467.494 81.2649L467.015 83.7971L467.491 84.873L466.79 86.7097L468.959 86.688L472.706 87.9541L475.799 87.7856L476.823 88.0899L477.177 88.0465L479.864 88.5681C481.288 88.8398 481.941 89.7636 481.816 91.3503ZM530.133 95.5997L529.334 96.8658L529.681 99.561L528.66 101.012L528.136 103.207L527.886 103.707L527.983 104.272C527.904 105.283 527.685 106.006 527.324 106.446L527.161 106.745L527.126 107.179C527.223 107.707 527.258 108.185 527.223 108.614C527.215 108.874 527.171 109.128 527.095 109.358L527.129 109.804L526.761 110.94L526.866 112.271L526.248 113.032L526.334 114.581L526.689 115.412L526.001 116.156L525.866 117.884L525.248 119.515L525.459 121.308L524.977 122.09L525.605 122.976L524.446 125.275L524.352 125.584L525.025 125.932L524.349 128.323L524.314 128.752C524.29 129.152 524.235 129.547 524.151 129.926L524.196 130.263L525.282 130.692L526.008 133.018L525.4 134.545L526.164 134.583C526.373 135.501 526.473 136.284 526.47 136.941L525.31 138.36C524.852 138.885 524.348 139.306 523.814 139.609L522.564 140.348L522.262 139.751L521.522 140.261L519.689 135.969L519.835 134.132C519.675 132.79 519.641 131.419 519.734 130.062L519.787 129.41L519.87 122.971L520.776 118.547L520.568 115.879L519.158 118.672L518.318 121.357L517.735 121.683L516.582 123.873L514.666 126.024L514.079 127.22L512.402 128.981L511.947 130.317L509.573 132.056L506.91 135.697L505.566 135.882L504.587 136.784C503.441 136.496 502.622 135.643 502.129 134.23C500.185 132.252 499.282 129.779 499.421 126.818L499.792 126.557L499.772 125.899L499.806 124.59L499.501 123.106L500.036 121.677L500.351 119.438L501.112 115.972L501.147 115.537C501.112 115.39 501.098 115.238 501.112 115.097C501.148 114.729 501.223 114.372 501.334 114.043C501.297 113.754 501.296 113.457 501.331 113.168C501.372 112.662 501.574 111.864 501.938 110.766L502.448 110.532C502.198 110.119 502.094 109.701 502.126 109.266C502.136 109.045 502.177 108.829 502.247 108.636C502.219 108.381 502.215 108.121 502.237 107.864C502.306 107.006 502.632 106.408 503.216 106.082C503.44 105.325 503.754 104.642 504.143 104.071L503.868 103.147L504.82 101.68L504.854 101.251C504.962 99.8871 505.358 98.6862 506.045 97.6483L506.129 95.6921L506.441 95.3117L506.465 94.9911C506.437 94.8843 506.421 94.7699 506.42 94.6542C506.433 94.4537 506.471 94.2592 506.533 94.0827C506.595 93.9062 506.68 93.7512 506.781 93.6271L506.833 92.9805C507.073 92.2958 507.639 91.3123 508.534 90.0244C509.427 88.7366 510.1 87.59 510.552 86.5793L510.854 87.1879L511.656 86.7912L512.017 86.6445L514.419 85.4599L519.693 86.9108L519.63 87.6715L521.245 88.5247C522.3 88.7257 522.946 89.3995 523.185 90.5352C523.209 90.2816 523.252 90.0335 523.314 89.7962L523.345 89.3669L524.633 91.6927L525.907 92.3773L528.466 91.8883L529.15 94.752L530.133 95.5997ZM523.147 99.9468L522.929 99.1426L522.394 98.8166L520.471 95.7138L519.117 95.1269L518.016 94.9096L517.894 94.6705L517.318 94.8878L516.738 94.2303L514.947 93.8825L515.12 94.3553L513.468 94.915L513.148 95.4041L512.933 95.4693C512.024 96.393 511.378 97.1755 510.999 97.833L510.312 100.333L509.961 101.251L510.534 102.892L509.25 104.066L509.354 104.528C508.743 105.794 508.385 107.082 508.285 108.369L507.649 109.348L507.496 111.288L506.868 112.152L506.653 113.097L506.431 113.271L506.313 114.782L506.063 115.281C506.022 115.973 505.922 116.653 505.764 117.303L505.861 117.868L505.08 119.803L505.302 120.498L504.736 121.487L505.059 123.628L504.181 124.992L504.16 127.068L504.132 127.394L504.393 127.665L504.747 127.617C505.004 127.301 505.257 127.024 505.511 126.78L505.441 125.894L506.424 125.861L506.687 125.144L511.159 120.748L511.59 120.612L512.218 118.873C512.503 118.781 512.916 118.569 513.457 118.238L514.006 116.591L514.558 116.694L514.492 114.82L515.475 114.792C515.589 114.521 515.756 114.189 515.975 113.793C516.238 113.401 516.499 113.054 516.756 112.738L520.845 106.076L521.526 104.566L521.488 104.12L522.064 103.028L522.297 101.865L522.984 101.121L523.147 99.9468ZM576.644 109.576C576.596 110.222 576.134 110.755 575.259 111.168C575.047 111.494 574.679 111.749 574.151 111.94C573.65 112.148 573.16 112.42 572.686 112.755L571.301 111.722C570.496 112.445 569.52 112.695 568.371 112.472L567.572 111.989L566.881 112.733L565.021 112.374L563.757 113.336C563.316 112.974 562.838 112.734 562.344 112.63C562.021 112.795 561.683 112.878 561.344 112.874C561.08 112.809 560.829 112.649 560.611 112.407L560.084 116.466L559.917 119.498L559.414 123.237L559.23 127.361L559.285 129.339L559.167 130.85L559.875 134.273C559.802 134.358 559.741 134.465 559.696 134.589C559.65 134.712 559.622 134.849 559.612 134.99C559.57 135.49 560.046 135.985 561.035 136.463L561.07 137.789L561.528 138.202L562.285 139.224L562.788 139.979C563.257 139.925 563.583 139.914 563.767 139.946C564.18 140.028 564.587 140.218 564.982 140.511C565.18 140.403 565.607 139.973 566.274 139.224C566.732 138.729 567.145 138.517 567.513 138.588L567.718 138.626C567.778 138.697 567.846 138.747 567.92 138.773C568.44 137.49 569.246 136.729 570.336 136.501C571.229 136.627 572.056 137.296 572.638 138.365L572.579 139.126C572.388 141.571 571.714 143.006 570.562 143.44C570.027 144.875 569.079 145.679 567.711 145.853L566.791 146.88L565.895 146.706L564.26 147.048C563.726 147.116 563.189 147.087 562.66 146.961C562.255 146.871 561.867 146.649 561.521 146.309L560.625 146.13L558.372 143.62L557.778 143.179L556.567 139.876L555.852 138.316L554.758 132.632L554.605 127.454L554.845 126.187L554.386 124.894L554.848 123.454L554.692 121.009L555.234 120.351L555.48 118.977L555.376 117.64L555.664 115.727L555.525 113.945L555.911 113.472L556.046 111.749L555.591 111.331L554.248 111.51L553.116 109.869L552.911 109.831C551.529 109.565 550.932 108.283 551.113 105.979L551.137 105.653L550.47 103.452L551.932 101.762L553.623 102.523L554.536 102.479L555.803 103.267L557.251 103.55L557.417 101.392L556.761 98.1971L557.716 97.6157L557.497 95.9311L557.831 92.6001L557.386 91.0895C557.15 90.3996 557.042 89.6206 557.074 88.8398C557.11 88.1491 557.283 87.4934 557.57 86.9651L557.896 85.4979L558.514 84.7372C559.785 84.6176 560.625 84.5959 561.038 84.6774C562.51 84.96 563.233 86.1555 563.205 88.2638L562.955 88.7692C563.164 89.3506 563.259 90.0164 563.226 90.6819C563.2 90.863 563.163 91.0395 563.115 91.209L562.927 91.8285L562.799 92.5675L562.965 94.0238L562.854 94.5509L562.872 96.0887L562.149 97.2625L562.326 99.4904L561.847 102.023L562.323 103.099L561.618 104.935L563.788 104.913L567.538 106.18L570.628 106.011L571.655 106.315L572.006 106.272L574.693 106.788C576.12 107.06 576.769 107.989 576.644 109.576ZM605.877 113.765L605.047 117.221L602.453 117.276L600.968 118.411L600.12 117.591L599.089 118.265L598.003 118.716L597.256 119.335L597.221 119.77L595.69 120.569L594.572 122.329L594.09 122.232C593.26 123.318 592.67 123.97 592.326 124.193L591.167 126.492L590.806 126.638C590.55 127.452 590.321 128.287 590.122 129.138L589.115 129.491L588.598 130.703L587.962 131.681L587.698 133.268L587.122 133.485L586.994 135.105L586.761 135.387C586.872 135.773 587 136.202 587.15 136.67L586.067 137.115L585.82 138.49L584.987 140.191L585.289 141.674L584.24 143.446C584.275 144.179 584.282 144.696 584.261 144.984L584.227 145.413C584.172 145.578 584.134 145.756 584.115 145.94L584.178 146.934L585.195 149.108L584.105 151.412L583.202 152.227L581.154 153.363L578.731 151.254L578.925 148.771L578.727 147.749L579.06 146.174C579.05 145.299 579.072 144.425 579.127 143.554C579.155 143.266 579.201 142.982 579.262 142.707L579.321 141.951L579.338 140.865C579.203 140.614 579.102 140.323 579.042 140.009C578.983 139.694 578.965 139.364 578.991 139.039C579.036 138.468 579.248 137.849 579.623 137.191C579.654 136.833 579.692 135.746 579.741 133.931L579.974 133.648L579.876 132.203L580.116 130.937L580.036 130.154L580.439 127.709L580.109 126.557L580.477 125.421L580.314 123.965C580.394 123.541 580.46 122.971 580.515 122.253C580.602 121.172 580.567 120.438 580.411 120.042L580.737 119.444L580.612 117.455L580.102 115.934L580.585 114.271L580.359 113.575L580.286 110.929L580.352 110.065C580.153 109.562 580.077 108.964 580.137 108.38C580.248 106.946 581.355 105.919 583.456 105.299L585.136 106.169L585.32 108.288L585.9 109.82L585.463 112.689C585.49 114.157 585.525 115.771 585.574 117.531L585.647 119.297C585.681 119.449 585.695 119.851 585.692 120.509C585.631 121.017 585.473 121.484 585.237 121.846L585.272 124.041L584.949 126.389L584.588 127.416L584.761 127.888L584.817 128.991C585.111 128.59 585.323 128.06 585.424 127.47L585.827 125.899C585.992 125.502 586.238 125.204 586.525 125.052L586.928 123.487L587.959 122.808L588.198 121.541L589.059 120.389L589.736 118.879C590.413 117.988 591.038 117.45 591.611 117.27L591.774 116.971L592.514 115.58L593.218 115.499L593.451 115.211L593.777 114.619L594.586 114.119L595.059 113.439L595.465 113.63L596.048 113.304L596.378 112.706L597.253 112.217L598.52 111.26L600.242 110.717C600.895 110.695 601.245 110.69 601.29 110.695L601.283 110.804C601.238 110.798 601.211 110.826 601.204 110.902L601.273 110.913C601.569 110.917 601.862 110.824 602.134 110.641C602.44 110.384 602.793 110.298 603.134 110.396C603.318 110.429 603.634 110.559 604.082 110.793C605.269 111.097 605.87 112.086 605.877 113.765ZM641.105 140.577C640.904 141.337 640.629 142.201 640.272 143.152L640.293 143.815L640.47 147.793L639.664 151.798L639.72 153.776L639.195 155.102L639.098 159.9L638.765 160.606L638.518 163.731L638.255 166.198L638.38 167.317L637.706 174.088L638.105 176.131L637.626 176.919L637.689 178.788L637.3 179.261L637.501 181.163L636.796 182.125L636.737 182.88L636.387 183.798C636.151 184.994 635.508 186.657 634.453 188.792L633.762 191.395C633.502 191.516 633.252 191.687 633.019 191.906L632.79 192.194L632.068 193.368L631.252 194.851L630.002 195.601C629.329 197.073 628.613 197.851 627.86 197.927C627.699 198.146 627.52 198.332 627.329 198.481L627.096 198.763L626.079 199.225L625.461 199.986L624.774 199.85L624.36 200.649L623.152 199.975L621.743 201.019L620.535 200.35L618.219 200.453L617.747 200.252L617.382 200.399L615.16 199.312L614.126 199.117L613.765 198.394L611.116 196.459L608.817 195.47L608.546 194.433L607.324 193.976L607.054 192.063L606.252 191.585L605.828 189.857L604.578 188.852L603.669 186.157L601.825 183.831L602.124 181.809C602.037 181.723 601.94 180.277 601.832 177.484C601.922 176.332 602.193 174.963 602.644 173.371L602.721 172.398L603.453 171.99L604.009 170.235L604.269 170.507L605.092 168.915L606.453 167.643L607.449 167.393L609.498 165.383L611.272 165.942C611.536 165.626 611.839 165.397 612.162 165.27C612.485 165.143 612.821 165.12 613.15 165.203C614.143 166.198 614.594 167.268 614.504 168.42C614.449 169.143 614.185 169.822 613.716 170.458L612.692 171.029L611.563 172.017L610.498 172.251L609.734 173.963L608.699 173.767L608.203 174.767L607.213 175.783L607.154 177.413L606.484 178.815L606.675 179.946L607.022 181.766L608.421 183.57L608.637 185.255L610.321 187.874L611.348 188.184L612.47 189.928L613.709 190.167L614.376 191.498L615.348 191.58L615.848 192.33L619.174 192.753L621.396 192.085L622.694 192.444L624.242 191.428C624.566 191.289 624.902 191.241 625.235 191.286C625.333 191.232 625.503 191.123 625.749 190.949L626.162 190.151L626.825 190.607L627.134 190.227L627.204 189.368C627.284 188.944 627.61 188.645 628.183 188.461C628.47 187.717 628.909 187.147 629.429 186.841C629.596 186.504 629.773 185.738 629.961 184.532L630.995 183.853L631.259 183.141C631.488 182.597 631.721 182.021 631.957 181.413L632.051 181.103L632.585 176.935L632.887 176.664L633.023 174.936L632.873 173.267L633.391 172.05C633.411 170.594 633.439 169.616 633.481 169.116C633.529 168.464 633.613 167.714 633.727 166.861C633.835 166.078 633.894 165.611 633.904 165.47L634.338 159.97L633.963 158.476L634.623 156.302L634.658 154.118L635.088 148.619L634.991 147.173L635.324 146.472L635.436 145.07C635.445 144.74 635.494 144.415 635.581 144.114L635.224 141.528L635.519 137.751L634.609 139.544L633.707 140.359L632.78 141.495L632.2 141.712L631.894 142.962L631.231 143.386L631.137 143.696L630.072 144.804L628.565 147.032L626.468 149.695L625.753 149.89L625.506 150.39L623.25 152.363L622.632 152.243L621.857 153.194L621.496 154.216L619.92 154.683L619.587 155.384L618.535 155.4L616.969 156.634L615.764 156.84L615.164 157.384L614.386 157.449L614.164 157.628C613.487 158.52 612.504 158.84 611.22 158.596C609.841 158.324 608.814 157.438 608.14 155.922L606.904 152.069L606.995 150.005L606.474 145.967L606.727 142.728L606.554 141.381L607.05 140.381L606.894 137.941L607.425 137.387L607.578 136.322L608.095 135.11L608.133 132.817L608.477 132.002L608.536 131.252C608.654 129.741 608.956 128.008 609.435 126.057L609.456 123.106L609.873 120.449L609.557 116.444L609.755 115.716L609.529 115.015L610.63 111.728C610.904 110.608 611.084 109.478 611.175 108.326C611.646 108.052 612.148 107.932 612.65 107.972C613.152 108.012 613.643 108.212 614.094 108.56L614.546 110.837L615.615 112.358C615.393 113.407 615.212 114.249 615.07 114.879L615.563 116.618L615.202 117.64L616.004 118.998L614.99 121.215L615.185 124.095L614.608 125.193L614.66 125.421L613.883 129.98L613.553 134.186L613.088 134.757L612.518 138.474L611.803 139.544C611.772 140.013 611.758 140.485 611.761 140.957L611.678 142.038L612.008 144.071L611.418 145.38V147.135L611.248 147.537L611.282 148.858L611.834 149.841L612.334 149.717L612.352 150.379L612.921 149.396L614.917 149.776C615.253 149.378 615.634 149.08 616.039 148.896C617.184 147.95 618.177 147.483 619.014 147.499L619.194 146.108C620.566 145.277 622.305 144.19 624.416 142.848L624.76 142.033C624.64 142.129 624.518 142.215 624.392 142.288C624.541 142.174 624.888 141.908 625.433 141.506L625.819 140.158L626.392 139.061L627.402 138.707L628.054 137.523L628.388 137.697L628.836 137.343L629.773 136.099L630.127 136.056L630.221 135.746L631.623 133.936L632.533 132.143C633.088 131.995 633.592 131.549 633.96 130.882L635.172 127.937L635.297 124.568L636.019 124.269L636.043 123.943L635.783 121.922L635.887 121.503C635.626 120.656 635.512 120.009 635.547 119.58C635.609 118.786 635.96 117.873 636.602 116.825L636.578 117.151L636.939 116.124L637.04 115.705L637.015 116.031C637.494 114.662 638.473 114.081 639.949 114.293L641.893 118.064L641.879 120.906L642.424 122.873L641.876 124.519L641.886 125.285L641.841 125.829C641.691 126.118 641.551 126.419 641.421 126.731L641.577 127.421L641.442 129.144L641.032 130.817L641.122 133.241L640.987 134.969L641.133 135.762L640.834 137.789L641.105 140.577ZM663.55 114.999L663.318 115.281L662.967 117.075L662.62 117.009L662.321 118.151L662.529 118.194C662.554 119.074 662.592 119.743 662.651 120.188L662.3 121.112C662.335 121.846 662.342 122.357 662.318 122.645C662.304 122.862 662.224 123.28 662.078 123.911L661.866 124.856L660.981 133.442L661.311 134.605L660.686 137.224L660.922 139.566L660.491 140.577C660.575 141.326 660.585 142.055 660.53 142.777L660.731 144.679L660.29 144.918L660.248 145.462C660.231 145.943 660.147 146.412 660.002 146.837L659.943 147.592C659.516 149.477 658.773 150.32 657.714 150.119C656.336 149.852 655.759 148.32 655.978 145.516L656.138 143.467L656.186 141.066L655.943 138.827L656.381 137.707L656.12 136.566L656.686 133.822L656.03 133.262L656.638 130.861L656.575 129.861L656.728 127.921L656.634 127.356L656.863 126.193C656.939 125.639 657.076 125.11 657.266 124.628L657.155 124.28L657.204 123.628L656.669 122.433L657.554 120.965L657.37 119.721L657.662 118.689L657.78 117.173C657.78 116.591 657.787 116.227 657.797 116.086C657.824 115.758 657.873 115.435 657.943 115.124L658.002 114.369C657.953 114.078 657.93 113.778 657.933 113.477L657.759 113.01C657.78 112.722 657.891 112.521 658.086 112.412L657.912 111.945L658.013 110.646L657.402 109.543L658.075 104.528L660.04 105.343L661.165 105.234L663.623 106.908L663.849 108.484C663.863 108.924 663.838 109.543 663.776 110.331C663.757 110.659 663.708 110.982 663.63 111.288L663.373 111.896L663.21 112.195L663.55 114.999ZM661.349 160.889L661.023 162.356C660.92 162.768 660.84 163.194 660.783 163.627L658.832 165.334L657.7 164.573L656.607 165.127L655.711 164.078L654.263 163.801L653.76 159.541L654.52 156.949L655.673 155.64L655.957 155.585L656.732 154.64C657.409 154.911 657.902 155.194 658.204 155.471C658.94 155.612 659.453 155.889 659.749 156.313C659.512 156.48 659.267 156.616 659.016 156.721L660.509 157.335L660.88 158.829L661.349 160.889Z" fill="#7C3AED"/>
</svg>
